<?xml version="1.0" encoding="UTF-8"?>
<svg id="Layer_1" data-name="Layer 1" xmlns="http://www.w3.org/2000/svg" viewBox="0 0 435.96 255.79">
  <defs>
    <style>
      .cls-1 {
        fill: #0046e0;
      }
    </style>
  </defs>
  <path class="cls-1" d="m258.55,57.81c-32.57-37.61-105.16-35.93-131.52,4.87L20.51,230.54c-.46.71.03,1.65.87,1.69l61.31-.02c17.39-.39,32.36-7.36,41.38-21.32l69.15-107.06c25.51-39.5,48.8-39.31,65.85-30.89h0c3.76-3.76,4-9.76.53-13.79"/>
  <path class="cls-1" d="m172.54,208.44c32.57,37.61,105.16,35.93,131.52-4.87l106.53-167.85c.46-.71-.03-1.65-.87-1.69l-61.31.02c-17.39.39-32.36,7.36-41.38,21.32l-69.15,107.06c-25.51,39.5-48.8,39.31-65.85,30.89h0c-3.76,3.76-4,9.76-.53,13.79"/>
</svg>